Coordinates
version=1
nRows=8
nColumns=36
inDegrees=yes

Units are S.I. units (second, meters, Newtons, ...)
If the header above contains a line with 'inDegrees', this indicates whether rotational values are in degrees (yes) or radians (no).

endheader
time	pelvis_tilt	pelvis_list	pelvis_rotation	pelvis_tx	pelvis_ty	pelvis_tz	hip_flexion_r	hip_adduction_r	hip_rotation_r	knee_angle_r	knee_angle_r_beta	ankle_angle_r	subtalar_angle_r	mtp_angle_r	hip_flexion_l	hip_adduction_l	hip_rotation_l	knee_angle_l	knee_angle_l_beta	ankle_angle_l	subtalar_angle_l	mtp_angle_l	lumbar_extension	lumbar_bending	lumbar_rotation	arm_flex_r	arm_add_r	arm_rot_r	elbow_flex_r	pro_sup_r	arm_flex_l	arm_add_l	arm_rot_l	elbow_flex_l	pro_sup_l
      0.66000000	     -3.69569326	      0.12227934	     -1.93773958	      0.63925735	      0.91173249	     -0.19033444	     -8.28788079	      3.18306396	      1.13054560	     28.17316163	      0.49171443	     11.33130327	     -4.77961175	     -7.00156300	     30.10251603	      3.72881231	     -1.03849915	     15.62022954	      0.27262444	    -10.76958232	    -11.71818262	     -7.00156300	     -5.86065607	     -3.73515409	      5.58109729	     10.17266223	    -17.10618632	      4.99167488	     70.64675811	    106.44859549	    -15.97584287	     -7.74032727	     -5.90596665	     26.87526645	     98.75910350
      0.67000000	     -3.53593460	      0.71682005	     -1.73948196	      0.65399072	      0.91266427	     -0.19162852	     -7.25899227	      2.23054580	      0.71168743	     31.71969218	      0.55361307	      8.79472474	     -4.85673319	     -7.01342280	     29.70830772	      4.64269250	     -0.39186336	     17.04260898	      0.29744964	    -10.39549450	    -12.88290311	     -7.01342280	     -5.96538247	     -4.44271112	      5.02524795	      9.42793789	    -16.66361860	      5.07757655	     70.38866614	    106.41580839	    -15.66783397	     -7.83345901	     -5.75860996	     26.86038252	     98.75810073
      0.68000000	     -3.25915355	      1.33934558	     -1.49521475	      0.66846600	      0.91405325	     -0.19307905	     -6.12884996	      1.20067608	      0.24786827	     35.48458530	      0.61932285	      5.95620732	     -4.72872383	     -7.01860772	     29.08513869	      5.60540005	      0.07777789	     18.30739993	      0.31952441	     -9.54931771	    -13.82634789	     -7.01860772	     -6.28486369	     -5.17180651	      4.36549284	      8.70561046	    -16.26111650	      5.20294307	     70.07555227	    106.40138142	    -15.25676794	     -7.92142595	     -5.61826121	     26.93758342	     98.77579124
      0.69000000	     -3.30994778	      1.92496112	     -1.30417116	      0.68248971	      0.91527827	     -0.19450884	     -4.34345459	      0.23028515	      0.02101440	     39.55816884	      0.69042029	      2.60463872	     -5.20784713	     -7.02804816	     28.69977853	      6.51547258	      0.64763278	     19.35181699	      0.33775292	     -8.76158453	    -14.84879208	     -7.02804816	     -6.19979608	     -5.81983268	      3.79553758	      7.95258822	    -15.87168166	      5.41589695	     69.46428379	    106.39037662	    -14.85317814	     -8.02893551	     -5.27813999	     27.20561178	     98.84003973
      0.70000000	     -3.31415464	      2.46578711	     -1.18241459	      0.69623258	      0.91678567	     -0.19577944	     -2.41042549	     -0.68461253	     -0.09312137	     43.72143811	      0.76308305	     -1.05503127	     -5.96843528	     -7.04089431	     28.11259679	      7.30268482	      0.91355150	     20.10499398	      0.35089834	     -7.83507632	    -15.53727395	     -7.04089431	     -6.20524154	     -6.41782815	      3.21488242	      7.25476333	    -15.50219235	      5.75399362	     68.73456066	    106.40428217	    -14.43431924	     -8.16863407	     -4.80285207	     27.54557149	     98.94030211
      0.71000000	     -3.23944931	      3.07086629	     -1.12751826	      0.70964498	      0.91855687	     -0.19698627	     -0.39602000	     -1.71951737	     -0.16018711	     47.91168209	      0.83621660	     -4.31986772	     -6.06750653	     -7.04692228	     27.25225101	      8.09373255	      0.91135541	     20.45033039	      0.35692560	     -6.66919643	    -15.87994866	     -7.04692228	     -6.35829708	     -7.08153604	      2.69657675	      6.52232040	    -15.15594954	      6.10309104	     68.05807975	    106.40759949	    -13.85936209	     -8.28629948	     -4.49049947	     27.96162468	     99.03163339
      0.72000000	     -3.44998118	      3.47165928	     -1.18368244	      0.72258146	      0.92009452	     -0.19781257	      2.07939179	     -2.35941680	      0.12097344	     52.01620173	      0.90785398	     -7.95064026	     -7.75168104	     -7.06183507	     26.66166845	      8.52578627	      0.56424007	     20.65682152	      0.36052955	     -5.49681673	    -15.51585982	     -7.06183507	     -6.16809223	     -7.51837182	      2.23660885	      5.94218470	    -14.83229980	      6.72255698	     66.92392958	    106.44455980	    -13.40299518	     -8.46407804	     -3.82984543	     28.61089781	     99.23696257
      0.73000000	     -3.44984935	      3.98855252	     -1.32563242	      0.73531586	      0.92204007	     -0.19863118	      4.37133869	     -3.18724329	      0.42048174	     55.92332216	      0.97604610	    -10.18778158	     -8.12154560	     -7.06630837	     25.60983369	      9.09136244	      0.26728843	     20.38277175	      0.35574648	     -4.42882916	    -15.43103017	     -7.06630837	     -6.26022121	     -8.06580773	      1.94414595	      5.21616215	    -14.55366939	      7.16264047	     66.08623156	    106.44147850	    -12.67364061	     -8.56639267	     -3.55028006	     29.16054283	     99.34714479
